<?xml version="1.0" encoding="UTF-8" standalone="no"?>
<!-- Created with Inkscape (http://www.inkscape.org/) -->

<svg
   xmlns:dc="http://purl.org/dc/elements/1.1/"
   xmlns:cc="http://creativecommons.org/ns#"
   xmlns:rdf="http://www.w3.org/1999/02/22-rdf-syntax-ns#"
   xmlns:svg="http://www.w3.org/2000/svg"
   xmlns="http://www.w3.org/2000/svg"
   version="1.1"
   width="104"
   height="104"
   id="svg2">
  <title
     id="title3029">xWeb close image</title>
  <defs
     id="defs4" />
  <metadata
     id="metadata7">
    <rdf:RDF>
      <cc:Work
         rdf:about="">
        <dc:format>image/svg+xml</dc:format>
        <dc:type
           rdf:resource="http://purl.org/dc/dcmitype/StillImage" />
        <dc:title>xWeb close image</dc:title>
      </cc:Work>
    </rdf:RDF>
  </metadata>
  <g
     transform="translate(0,-948.3622)"
     id="layer1">
    <path
       d="m 117.14286,998.07648 a 58.57143,51.42857 0 1 1 -117.14286,0 58.57143,51.42857 0 1 1 117.14286,0 z"
       transform="matrix(0.85365851,0,0,0.97222225,2,30.010025)"
       id="path2987"
       style="fill:#ffffff;fill-opacity:1;stroke:none" />
    <path
       d="m 117.14286,998.07648 a 58.57143,51.42857 0 1 1 -117.14286,0 58.57143,51.42857 0 1 1 117.14286,0 z"
       transform="matrix(0.72560974,0,0,0.82638892,9,176.06284)"
       id="path2987-1"
       style="fill:#000000;fill-opacity:1;stroke:none" />
    <rect
       width="11.815871"
       height="58.915306"
       x="746.10431"
       y="600.75598"
       transform="matrix(0.66808194,0.74408771,-0.71468745,0.69944395,0,0)"
       id="rect3009"
       style="fill:#ffffff;fill-opacity:1;stroke:none" />
    <rect
       width="11.815871"
       height="58.915306"
       x="657.23834"
       y="-809.27563"
       transform="matrix(-0.74408771,0.66808194,-0.69944395,-0.71468745,0,0)"
       id="rect3009-7"
       style="fill:#ffffff;fill-opacity:1;stroke:none" />
  </g>
</svg>
